<?xml version="1.0" encoding="UTF-8"?>
<svg width="600" height="450" viewBox="0 0 600 450" fill="none" xmlns="http://www.w3.org/2000/svg">
  <rect width="600" height="450" rx="20" fill="#E6F2FF"/>
  <circle cx="300" cy="225" r="150" fill="#CCE0FF"/>
  <path d="M350 140H250C241.716 140 235 146.716 235 155V295C235 303.284 241.716 310 250 310H350C358.284 310 365 303.284 365 295V155C365 146.716 358.284 140 350 140Z" fill="white" stroke="#0066FF" stroke-width="5"/>
  <rect x="250" y="170" width="100" height="110" rx="5" fill="#0066FF" fill-opacity="0.1"/>
  <circle cx="300" cy="190" r="10" fill="#0066FF"/>
  <circle cx="270" cy="220" r="15" fill="#0066FF"/>
  <circle cx="330" cy="240" r="20" fill="#0066FF"/>
  <path d="M170 200H190M180 190V210" stroke="#0066FF" stroke-width="5" stroke-linecap="round"/>
  <path d="M410 200H430M420 190V210" stroke="#0066FF" stroke-width="5" stroke-linecap="round"/>
  <path d="M180 310C180 310 220 290 300 290C380 290 420 310 420 310" stroke="#0066FF" stroke-width="5" stroke-linecap="round"/>
  <path d="M460 150C460 150 480 180 480 225C480 270 460 300 460 300" stroke="#0066FF" stroke-width="5" stroke-linecap="round"/>
  <path d="M140 150C140 150 120 180 120 225C120 270 140 300 140 300" stroke="#0066FF" stroke-width="5" stroke-linecap="round"/>
  <text x="290" y="360" text-anchor="middle" font-family="Arial" font-size="24" fill="#0066FF">Medical Imaging AI</text>
</svg>